<svg width="17" height="17" viewBox="0 0 20 21" fill="none" xmlns="http://www.w3.org/2000/svg">
<path d="M0 20.625V15.9028L14.6667 1.26389C14.8889 1.06019 15.1344 0.902778 15.4033 0.791667C15.6722 0.680556 15.9544 0.625 16.25 0.625C16.5463 0.625 16.8333 0.680556 17.1111 0.791667C17.3889 0.902778 17.6296 1.06944 17.8333 1.29167L19.3611 2.84722C19.5833 3.05093 19.7455 3.29167 19.8478 3.56944C19.95 3.84722 20.0007 4.125 20 4.40278C20 4.69907 19.9493 4.98167 19.8478 5.25056C19.7463 5.51944 19.5841 5.76463 19.3611 5.98611L4.72222 20.625H0ZM16.2222 5.95833L17.7778 4.40278L16.2222 2.84722L14.6667 4.40278L16.2222 5.95833Z" fill="#0967C2"/>
</svg>
