<svg width="17" height="17" viewBox="0 0 14 15" fill="none" xmlns="http://www.w3.org/2000/svg">
<path d="M0 14.625V11.3194L10.2667 1.07222C10.4222 0.92963 10.5941 0.819445 10.7823 0.741667C10.9706 0.663889 11.1681 0.625 11.375 0.625C11.5824 0.625 11.7833 0.663889 11.9778 0.741667C12.1722 0.819445 12.3407 0.936111 12.4833 1.09167L13.5528 2.18056C13.7083 2.32315 13.8219 2.49167 13.8934 2.68611C13.965 2.88056 14.0005 3.075 14 3.26944C14 3.47685 13.9645 3.67467 13.8934 3.86289C13.8224 4.05111 13.7088 4.22274 13.5528 4.37778L3.30555 14.625H0ZM11.3556 4.35833L12.4444 3.26944L11.3556 2.18056L10.2667 3.26944L11.3556 4.35833Z" fill="white"/>
</svg>
