<svg width="20" height="19" viewBox="0 0 20 19" fill="none" xmlns="http://www.w3.org/2000/svg">
<path d="M18.5714 10.8571H11.4286V17.6429C11.4286 18.0028 11.2781 18.348 11.0102 18.6025C10.7422 18.857 10.3789 19 10 19C9.62112 19 9.25776 18.857 8.98985 18.6025C8.72194 18.348 8.57143 18.0028 8.57143 17.6429V10.8571H1.42857C1.04969 10.8571 0.686328 10.7142 0.418419 10.4596C0.15051 10.2051 0 9.85994 0 9.5C0 9.14006 0.15051 8.79487 0.418419 8.54036C0.686328 8.28584 1.04969 8.14286 1.42857 8.14286H8.57143V1.35714C8.57143 0.997206 8.72194 0.652011 8.98985 0.397498C9.25776 0.142984 9.62112 0 10 0C10.3789 0 10.7422 0.142984 11.0102 0.397498C11.2781 0.652011 11.4286 0.997206 11.4286 1.35714V8.14286H18.5714C18.9503 8.14286 19.3137 8.28584 19.5816 8.54036C19.8495 8.79487 20 9.14006 20 9.5C20 9.85994 19.8495 10.2051 19.5816 10.4596C19.3137 10.7142 18.9503 10.8571 18.5714 10.8571Z" fill="#0967C2"/>
</svg>
